<?xml version="1.0" encoding="UTF-8" standalone="no"?><!DOCTYPE svg PUBLIC "-//W3C//DTD SVG 1.1//EN" "http://www.w3.org/Graphics/SVG/1.1/DTD/svg11.dtd"><svg width="100%" height="100%" viewBox="0 0 332 383" version="1.1" xmlns="http://www.w3.org/2000/svg" xmlns:xlink="http://www.w3.org/1999/xlink" xml:space="preserve" style="fill-rule:evenodd;clip-rule:evenodd;stroke-linejoin:round;stroke-miterlimit:1.41421;"><path d="M331.364,286.971l-165.683,95.655l-165.681,-95.655l0,-191.314l165.681,-95.657l165.683,95.657l0,191.314Z" style="fill:#343434;fill-rule:nonzero;"/><g><path d="M112.329,211.237l-13.001,-22.034c-1.578,-2.677 -4.165,-2.677 -5.743,0l-12.999,22.036c-1.58,2.682 -0.464,4.867 2.475,4.867l0,-0.002l26.792,0c2.942,0 4.057,-2.188 2.476,-4.867Z" style="fill:#fefefe;fill-rule:nonzero;"/><path d="M89.091,171.258l-13.001,-22.033c-1.578,-2.677 -4.165,-2.677 -5.743,0l-12.999,22.035c-1.581,2.683 -0.464,4.868 2.475,4.868l0,-0.002l26.792,0c2.941,0 4.056,-2.188 2.476,-4.868Z" style="fill:#fefefe;fill-rule:nonzero;"/><path d="M135.375,171.258l-13,-22.033c-1.579,-2.677 -4.166,-2.677 -5.744,0l-12.998,22.035c-1.581,2.683 -0.464,4.868 2.475,4.868l0,-0.002l26.791,0c2.942,0 4.057,-2.188 2.476,-4.868Z" style="fill:#fefefe;fill-rule:nonzero;"/><path d="M80.644,146.366l13,22.034c1.579,2.677 4.166,2.677 5.744,0l12.998,-22.036c1.581,-2.682 0.465,-4.867 -2.474,-4.867l0,0.002l-26.792,0c-2.942,0 -4.057,2.187 -2.476,4.867Z" style="fill:#fefefe;fill-rule:nonzero;"/><path d="M34.359,146.366l13.001,22.034c1.578,2.677 4.165,2.677 5.743,0l12.999,-22.036c1.58,-2.682 0.464,-4.867 -2.475,-4.867l0,0.002l-26.792,0c-2.941,0 -4.057,2.187 -2.476,4.867Z" style="fill:#fefefe;fill-rule:nonzero;"/><path d="M103.663,186.331l13.001,22.034c1.578,2.677 4.165,2.677 5.743,0l12.998,-22.036c1.581,-2.682 0.465,-4.867 -2.474,-4.867l0,0.002l-26.792,0c-2.942,0 -4.057,2.188 -2.476,4.867Z" style="fill:#fefefe;fill-rule:nonzero;"/><path d="M57.378,186.331l13.001,22.034c1.578,2.677 4.165,2.677 5.743,0l12.999,-22.036c1.581,-2.682 0.464,-4.867 -2.475,-4.867l0,0.002l-26.791,0c-2.942,0 -4.057,2.188 -2.477,4.867Z" style="fill:#fefefe;fill-rule:nonzero;"/><path d="M219.035,211.291l13.001,-22.034c1.578,-2.676 4.165,-2.676 5.743,0l12.999,22.036c1.581,2.682 0.464,4.868 -2.475,4.868l0,-0.002l-26.792,0c-2.941,-0.001 -4.057,-2.188 -2.476,-4.868Z" style="fill:#fefefe;fill-rule:nonzero;"/><path d="M242.273,171.313l13.001,-22.034c1.578,-2.677 4.165,-2.677 5.743,0l12.999,22.036c1.581,2.682 0.464,4.867 -2.475,4.867l0,-0.002l-26.791,0c-2.942,0 -4.057,-2.187 -2.477,-4.867Z" style="fill:#fefefe;fill-rule:nonzero;"/><path d="M195.989,171.313l13,-22.034c1.579,-2.677 4.166,-2.677 5.744,0l12.998,22.036c1.581,2.682 0.464,4.867 -2.474,4.867l0,-0.002l-26.792,0c-2.942,0 -4.057,-2.187 -2.476,-4.867Z" style="fill:#fefefe;fill-rule:nonzero;"/><path d="M250.72,146.421l-13,22.034c-1.579,2.676 -4.166,2.676 -5.744,0l-12.998,-22.036c-1.581,-2.683 -0.464,-4.868 2.475,-4.868l0,0.002l26.791,0c2.942,0 4.057,2.188 2.476,4.868Z" style="fill:#fefefe;fill-rule:nonzero;"/><path d="M297.005,146.421l-13.001,22.034c-1.578,2.676 -4.165,2.676 -5.743,0l-12.999,-22.036c-1.58,-2.683 -0.464,-4.868 2.475,-4.868l0,0.002l26.792,0c2.942,0 4.057,2.188 2.476,4.868Z" style="fill:#fefefe;fill-rule:nonzero;"/><path d="M227.701,186.386l-13,22.034c-1.579,2.676 -4.166,2.676 -5.744,0l-12.998,-22.036c-1.581,-2.682 -0.464,-4.867 2.474,-4.867l0,0.001l26.792,0c2.942,0.001 4.057,2.188 2.476,4.868Z" style="fill:#fefefe;fill-rule:nonzero;"/><path d="M273.986,186.386l-13.001,22.034c-1.578,2.676 -4.165,2.676 -5.743,0l-12.999,-22.036c-1.58,-2.682 -0.464,-4.867 2.475,-4.867l0,0.001l26.792,0c2.941,0.001 4.057,2.188 2.476,4.868Z" style="fill:#fefefe;fill-rule:nonzero;"/><path d="M158.375,211.184l-13,-22.034c-1.579,-2.676 -4.166,-2.676 -5.744,0l-12.998,22.036c-1.581,2.682 -0.464,4.867 2.475,4.867l0,-0.001l26.791,0c2.942,-0.001 4.057,-2.188 2.476,-4.868Z" style="fill:#fefefe;fill-rule:nonzero;"/><path d="M204.66,211.184l-13.001,-22.034c-1.578,-2.676 -4.165,-2.676 -5.743,0l-12.998,22.036c-1.581,2.682 -0.465,4.867 2.474,4.867l0,-0.001l26.792,0c2.942,-0.001 4.057,-2.188 2.476,-4.868Z" style="fill:#fefefe;fill-rule:nonzero;"/><path d="M172.651,226.354l13,22.034c1.579,2.677 4.166,2.677 5.743,0l12.999,-22.036c1.581,-2.682 0.464,-4.867 -2.475,-4.867l0,0.002l-26.791,0c-2.942,0 -4.057,2.188 -2.476,4.867Z" style="fill:#fefefe;fill-rule:nonzero;"/><path d="M181.316,251.26l-13,-22.034c-1.579,-2.677 -4.166,-2.677 -5.743,0l-12.999,22.036c-1.581,2.682 -0.464,4.867 2.475,4.867l0,-0.002l26.791,0c2.942,0 4.057,-2.188 2.476,-4.867Z" style="fill:#fefefe;fill-rule:nonzero;"/><path d="M158.275,226.462l-13,22.033c-1.579,2.677 -4.166,2.677 -5.744,0l-12.998,-22.036c-1.581,-2.682 -0.464,-4.867 2.475,-4.867l0,0.002l26.791,0c2.942,0 4.057,2.188 2.476,4.868Z" style="fill:#fefefe;fill-rule:nonzero;"/></g></svg>